<svg xmlns="http://www.w3.org/2000/svg" xmlns:xlink="http://www.w3.org/1999/xlink" width="1110" height="906.69"><rect width="1110" height="906.69" rx="5" ry="5" class="a"/><svg y="0%" x="0%"><circle cx="20" cy="20" r="6" fill="#ff5f58"/><circle cx="40" cy="20" r="6" fill="#ffbd2e"/><circle cx="60" cy="20" r="6" fill="#18c132"/></svg><svg height="846.69" viewBox="0 0 107 84.669" width="1070" x="15" xmlns="http://www.w3.org/2000/svg" xmlns:xlink="http://www.w3.org/1999/xlink" y="50"><style>@keyframes m{0%{transform:translateX(0)}1.4%{transform:translateX(-107px)}2.1%{transform:translateX(-856px)}2.2%{transform:translateX(-1498px)}3.3%{transform:translateX(-1605px)}3.8%{transform:translateX(-1712px)}3.9%{transform:translateX(-3638px)}4%{transform:translateX(-3959px)}4.1%{transform:translateX(-4066px)}85.7%{transform:translateX(-4280px)}86.6%{transform:translateX(-4387px)}86.7%{transform:translateX(-5885px)}86.8%{transform:translateX(-6313px)}88%{transform:translateX(-6420px)}88.7%{transform:translateX(-6527px)}88.8%{transform:translateX(-7276px)}88.9%{transform:translateX(-7597px)}90.6%{transform:translateX(-7704px)}92.3%{transform:translateX(-7811px)}94.4%{transform:translateX(-7918px)}98.3%{transform:translateX(-8025px)}to{transform:translateX(-8132px)}}.a{fill:#282d35}.f{fill:#66c2cd;white-space:pre}.g{fill:#b9c0cb}.g,.h,.i,.j{white-space:pre}.h{fill:#b9c0cb;font-weight:700}.i,.j{fill:#a8cc8c}.j{fill:#b9bfca;font-weight:700}</style><g font-family="Monaco,Consolas,Menlo,'Bitstream Vera Sans Mono','Powerline Symbols',monospace" font-size="1.67"><defs><symbol id="1"><text y="1.67" class="f">-------------------</text></symbol><symbol id="2"><text y="1.67" class="f">------------------------------</text></symbol><symbol id="3"><text y="1.67" class="f">---------------------------------------</text></symbol><symbol id="4"><text y="1.67" class="f">-------------------------------------------------------------------------</text></symbol><symbol id="5"><text y="1.67" class="f">----------------------------------------------------------------------------</text></symbol><symbol id="6"><text y="1.67" class="f">------------------------------------------------------------------------------</text></symbol><symbol id="7"><text y="1.67" class="f">-------------------------------------------------------------------------------</text></symbol><symbol id="8"><text x="1.002" y="1.67" class="g">SECTION</text><text x="9.018" y="1.67" class="g">:</text><text x="11.022" y="1.67" class="h">System</text><text x="18.036" y="1.67" class="h">Requirements</text></symbol><symbol id="9"><text x="11.022" y="1.67" class="g">Ensuring</text><text x="20.04" y="1.67" class="g">all</text><text x="24.048" y="1.67" class="g">needed</text><text x="31.062" y="1.67" class="g">requirements</text><text x="44.088" y="1.67" class="g">(git,</text><text x="50.1" y="1.67" class="g">python&gt;3.9,</text><text x="62.124" y="1.67" class="g">poetry</text><text x="69.138" y="1.67" class="g">e.t.c)</text><text x="76.152" y="1.67" class="g">are</text><text x="80.16" y="1.67" class="g">met/installed.</text></symbol><symbol id="10"><text y="1.67" class="f">-----------</text></symbol><symbol id="11"><text y="1.67" class="f">---------------</text></symbol><symbol id="12"><text y="1.67" class="f">--------------------------</text></symbol><symbol id="13"><text y="1.67" class="f">---------------------------</text></symbol><symbol id="14"><text y="1.67" class="f">-----------------------------</text></symbol><symbol id="15"><text y="1.67" class="f">--------------------------------</text></symbol><symbol id="16"><text y="1.67" class="f">---------------------------------</text></symbol><symbol id="17"><text y="1.67" class="f">-----------------------------------</text></symbol><symbol id="18"><text y="1.67" class="f">------------------------------------</text></symbol><symbol id="19"><text y="1.67" class="f">-------------------------------------</text></symbol><symbol id="20"><text y="1.67" class="f">----------------------------------------</text></symbol><symbol id="21"><text y="1.67" class="f">------------------------------------------</text></symbol><symbol id="22"><text x="1.002" y="1.67" class="g">All</text><text x="5.01" y="1.67" class="g">requirements</text><text x="18.036" y="1.67" class="g">have</text><text x="23.046" y="1.67" class="g">been</text><text x="28.056" y="1.67" class="g">satisfied</text><text x="38.076" y="1.67" class="g">✔</text></symbol><symbol id="23"><text x="3.006" y="1.67" class="i">-</text><text x="5.01" y="1.67" class="i">grep</text><text x="10.02" y="1.67" class="i">(GNU</text><text x="15.03" y="1.67" class="i">grep)</text><text x="21.042" y="1.67" class="i">3.4</text></symbol><symbol id="24"><text x="3.006" y="1.67" class="i">-</text><text x="5.01" y="1.67" class="i">GNU</text><text x="9.018" y="1.67" class="i">Awk</text><text x="13.026" y="1.67" class="i">5.0.1,</text><text x="20.04" y="1.67" class="i">API:</text><text x="25.05" y="1.67" class="i">2.0</text><text x="29.058" y="1.67" class="i">(GNU</text><text x="34.068" y="1.67" class="i">MPFR</text><text x="39.078" y="1.67" class="i">4.0.2,</text><text x="46.092" y="1.67" class="i">GNU</text><text x="50.1" y="1.67" class="i">MP</text><text x="53.106" y="1.67" class="i">6.2.0)</text></symbol><symbol id="25"><text x="3.006" y="1.67" class="i">-</text><text x="5.01" y="1.67" class="i">head</text><text x="10.02" y="1.67" class="i">(GNU</text><text x="15.03" y="1.67" class="i">coreutils)</text><text x="26.052" y="1.67" class="i">8.30</text></symbol><symbol id="26"><text x="3.006" y="1.67" class="i">-</text><text x="5.01" y="1.67" class="i">GNU</text><text x="9.018" y="1.67" class="i">Wget</text><text x="14.028" y="1.67" class="i">1.20.3</text><text x="21.042" y="1.67" class="i">built</text><text x="27.054" y="1.67" class="i">on</text><text x="30.06" y="1.67" class="i">linux-gnu.</text></symbol><symbol id="27"><text x="3.006" y="1.67" class="i">-</text><text x="5.01" y="1.67" class="i">curl</text><text x="10.02" y="1.67" class="i">7.68.0</text></symbol><symbol id="28"><text x="3.006" y="1.67" class="i">-</text><text x="5.01" y="1.67" class="i">git</text><text x="9.018" y="1.67" class="i">version</text><text x="17.034" y="1.67" class="i">2.25.1</text></symbol><symbol id="29"><text x="3.006" y="1.67" class="i">-</text><text x="5.01" y="1.67" class="i">Python</text><text x="12.024" y="1.67" class="i">3.9.8</text></symbol><symbol id="30"><text x="3.006" y="1.67" class="i">-</text><text x="5.01" y="1.67" class="i">Poetry</text><text x="12.024" y="1.67" class="i">(version</text><text x="21.042" y="1.67" class="i">1.5.1)</text></symbol><symbol id="31"><text x="1.002" y="1.67" class="g">SECTION</text><text x="9.018" y="1.67" class="g">:</text><text x="11.022" y="1.67" class="h">Defining</text><text x="20.04" y="1.67" class="h">Project</text></symbol><symbol id="32"><text x="11.022" y="1.67" class="g">Set</text><text x="15.03" y="1.67" class="g">your</text><text x="20.04" y="1.67" class="g">project</text><text x="28.056" y="1.67" class="g">details</text></symbol><symbol id="33"><text x="1.002" y="1.67" class="h">Enter</text><text x="7.014" y="1.67" class="h">Your</text><text x="12.024" y="1.67" class="h">Name</text><text x="17.034" y="1.67" class="g">[Anthony</text><text x="26.052" y="1.67" class="g">Mugendi]:</text></symbol><symbol id="34"><text x="1.002" y="1.67" class="h">Project</text><text x="9.018" y="1.67" class="h">Name</text><text x="14.028" y="1.67" class="g">[poetry_project]:</text></symbol><symbol id="35"><text x="1.002" y="1.67" class="h">Project</text><text x="9.018" y="1.67" class="h">Version</text><text x="17.034" y="1.67" class="g">[0.1.0]:</text></symbol><symbol id="36"><text x="1.002" y="1.67" class="g">Awesome!</text><text x="10.02" y="1.67" class="g">Project</text><text x="18.036" y="1.67" class="g">details</text><text x="26.052" y="1.67" class="g">below</text><text x="32.064" y="1.67" class="g">will</text><text x="37.074" y="1.67" class="g">be</text><text x="40.08" y="1.67" class="g">used:</text></symbol><symbol id="37"><text x="8.016" y="1.67" class="i">Author:</text><text x="16.032" y="1.67" class="j">Anthony</text><text x="24.048" y="1.67" class="j">Mugendi</text><text x="31.062" y="1.67" class="i">,</text><text x="33.066" y="1.67" class="i">Project:</text><text x="42.084" y="1.67" class="j">poetry_project</text><text x="56.112" y="1.67" class="i">,</text><text x="58.116" y="1.67" class="i">Version:</text><text x="67.134" y="1.67" class="j">0.1.0</text></symbol><symbol id="a"><path fill="transparent" d="M0 0h107v39H0z"/></symbol><symbol id="b"><path fill="#6f7683" d="M0 0h1.102v2.171H0z"/></symbol></defs><path class="a" d="M0 0h107v84.669H0z"/><g style="animation-duration:.753984s;animation-iteration-count:infinite;animation-name:m;animation-timing-function:steps(1,end)"><svg width="8239"><svg><use xlink:href="#a"/><use xlink:href="#b" x="-.004"/></svg><svg x="107"><use xlink:href="#a"/><use xlink:href="#b" x="-.004" y="2.146"/></svg><svg x="214"><use xlink:href="#a"/><use xlink:href="#b" x="4.996" y="2.146"/><text y="3.841" class="f">-----</text></svg><svg x="321"><use xlink:href="#a"/><use xlink:href="#b" x="18.996" y="2.146"/><use xlink:href="#1" y="2.171"/></svg><svg x="428"><use xlink:href="#a"/><use xlink:href="#b" x="29.996" y="2.146"/><use xlink:href="#2" y="2.171"/></svg><svg x="535"><use xlink:href="#a"/><use xlink:href="#b" x="38.996" y="2.146"/><use xlink:href="#3" y="2.171"/></svg><svg x="642"><use xlink:href="#a"/><use xlink:href="#b" x="45.996" y="2.146"/><text y="3.841" class="f">----------------------------------------------</text></svg><svg x="749"><use xlink:href="#a"/><use xlink:href="#b" x="52.996" y="2.146"/><text y="3.841" class="f">-----------------------------------------------------</text></svg><svg x="856"><use xlink:href="#a"/><use xlink:href="#b" x="59.996" y="2.146"/><text y="3.841" class="f">------------------------------------------------------------</text></svg><svg x="963"><use xlink:href="#a"/><use xlink:href="#b" x="66.996" y="2.146"/><text y="3.841" class="f">-------------------------------------------------------------------</text></svg><svg x="1070"><use xlink:href="#a"/><use xlink:href="#b" x="72.996" y="2.146"/><use xlink:href="#4" y="2.171"/></svg><svg x="1177"><use xlink:href="#a"/><use xlink:href="#b" x="75.996" y="2.146"/><use xlink:href="#5" y="2.171"/></svg><svg x="1284"><use xlink:href="#a"/><use xlink:href="#b" x="77.996" y="2.146"/><use xlink:href="#6" y="2.171"/></svg><svg x="1391"><use xlink:href="#a"/><use xlink:href="#b" x="78.996" y="2.146"/><use xlink:href="#7" y="2.171"/></svg><svg x="1498"><use xlink:href="#a"/><use xlink:href="#b" x="-.004" y="4.317"/><use xlink:href="#7" y="2.171"/></svg><svg x="1605"><use xlink:href="#a"/><use xlink:href="#b" x="-.004" y="10.83"/><use xlink:href="#7" y="2.171"/><use xlink:href="#8" y="6.513"/><use xlink:href="#9" y="8.684"/></svg><svg x="1712"><use xlink:href="#a"/><use xlink:href="#b" x="1.996" y="10.83"/><use xlink:href="#7" y="2.171"/><use xlink:href="#8" y="6.513"/><use xlink:href="#9" y="8.684"/><text y="12.525" class="f">--</text></svg><svg x="1819"><use xlink:href="#a"/><use xlink:href="#b" x="10.996" y="10.83"/><use xlink:href="#7" y="2.171"/><use xlink:href="#8" y="6.513"/><use xlink:href="#9" y="8.684"/><use xlink:href="#10" y="10.855"/></svg><svg x="1926"><use xlink:href="#a"/><use xlink:href="#b" x="14.996" y="10.83"/><use xlink:href="#7" y="2.171"/><use xlink:href="#8" y="6.513"/><use xlink:href="#9" y="8.684"/><use xlink:href="#11" y="10.855"/></svg><svg x="2033"><use xlink:href="#a"/><use xlink:href="#b" x="16.996" y="10.83"/><use xlink:href="#7" y="2.171"/><use xlink:href="#8" y="6.513"/><use xlink:href="#9" y="8.684"/><text y="12.525" class="f">-----------------</text></svg><svg x="2140"><use xlink:href="#a"/><use xlink:href="#b" x="18.996" y="10.83"/><use xlink:href="#7" y="2.171"/><use xlink:href="#8" y="6.513"/><use xlink:href="#9" y="8.684"/><use xlink:href="#1" y="10.855"/></svg><svg x="2247"><use xlink:href="#a"/><use xlink:href="#b" x="19.996" y="10.83"/><use xlink:href="#7" y="2.171"/><use xlink:href="#8" y="6.513"/><use xlink:href="#9" y="8.684"/><text y="12.525" class="f">--------------------</text></svg><svg x="2354"><use xlink:href="#a"/><use xlink:href="#b" x="21.996" y="10.83"/><use xlink:href="#7" y="2.171"/><use xlink:href="#8" y="6.513"/><use xlink:href="#9" y="8.684"/><text y="12.525" class="f">----------------------</text></svg><svg x="2461"><use xlink:href="#a"/><use xlink:href="#b" x="23.996" y="10.83"/><use xlink:href="#7" y="2.171"/><use xlink:href="#8" y="6.513"/><use xlink:href="#9" y="8.684"/><text y="12.525" class="f">------------------------</text></svg><svg x="2568"><use xlink:href="#a"/><use xlink:href="#b" x="25.996" y="10.83"/><use xlink:href="#7" y="2.171"/><use xlink:href="#8" y="6.513"/><use xlink:href="#9" y="8.684"/><use xlink:href="#12" y="10.855"/></svg><svg x="2675"><use xlink:href="#a"/><use xlink:href="#b" x="26.996" y="10.83"/><use xlink:href="#7" y="2.171"/><use xlink:href="#8" y="6.513"/><use xlink:href="#9" y="8.684"/><use xlink:href="#13" y="10.855"/></svg><svg x="2782"><use xlink:href="#a"/><use xlink:href="#b" x="28.996" y="10.83"/><use xlink:href="#7" y="2.171"/><use xlink:href="#8" y="6.513"/><use xlink:href="#9" y="8.684"/><use xlink:href="#14" y="10.855"/></svg><svg x="2889"><use xlink:href="#a"/><use xlink:href="#b" x="29.996" y="10.83"/><use xlink:href="#7" y="2.171"/><use xlink:href="#8" y="6.513"/><use xlink:href="#9" y="8.684"/><use xlink:href="#2" y="10.855"/></svg><svg x="2996"><use xlink:href="#a"/><use xlink:href="#b" x="31.996" y="10.83"/><use xlink:href="#7" y="2.171"/><use xlink:href="#8" y="6.513"/><use xlink:href="#9" y="8.684"/><use xlink:href="#15" y="10.855"/></svg><svg x="3103"><use xlink:href="#a"/><use xlink:href="#b" x="32.996" y="10.83"/><use xlink:href="#7" y="2.171"/><use xlink:href="#8" y="6.513"/><use xlink:href="#9" y="8.684"/><use xlink:href="#16" y="10.855"/></svg><svg x="3210"><use xlink:href="#a"/><use xlink:href="#b" x="34.996" y="10.83"/><use xlink:href="#7" y="2.171"/><use xlink:href="#8" y="6.513"/><use xlink:href="#9" y="8.684"/><use xlink:href="#17" y="10.855"/></svg><svg x="3317"><use xlink:href="#a"/><use xlink:href="#b" x="35.996" y="10.83"/><use xlink:href="#7" y="2.171"/><use xlink:href="#8" y="6.513"/><use xlink:href="#9" y="8.684"/><use xlink:href="#18" y="10.855"/></svg><svg x="3424"><use xlink:href="#a"/><use xlink:href="#b" x="36.996" y="10.83"/><use xlink:href="#7" y="2.171"/><use xlink:href="#8" y="6.513"/><use xlink:href="#9" y="8.684"/><use xlink:href="#19" y="10.855"/></svg><svg x="3531"><use xlink:href="#a"/><use xlink:href="#b" x="37.996" y="10.83"/><use xlink:href="#7" y="2.171"/><use xlink:href="#8" y="6.513"/><use xlink:href="#9" y="8.684"/><text y="12.525" class="f">--------------------------------------</text></svg><svg x="3638"><use xlink:href="#a"/><use xlink:href="#b" x="38.996" y="10.83"/><use xlink:href="#7" y="2.171"/><use xlink:href="#8" y="6.513"/><use xlink:href="#9" y="8.684"/><use xlink:href="#3" y="10.855"/></svg><svg x="3745"><use xlink:href="#a"/><use xlink:href="#b" x="39.996" y="10.83"/><use xlink:href="#7" y="2.171"/><use xlink:href="#8" y="6.513"/><use xlink:href="#9" y="8.684"/><use xlink:href="#20" y="10.855"/></svg><svg x="3852"><use xlink:href="#a"/><use xlink:href="#b" x="40.996" y="10.83"/><use xlink:href="#7" y="2.171"/><use xlink:href="#8" y="6.513"/><use xlink:href="#9" y="8.684"/><text y="12.525" class="f">-----------------------------------------</text></svg><svg x="3959"><use xlink:href="#a"/><use xlink:href="#b" x="41.996" y="10.83"/><use xlink:href="#7" y="2.171"/><use xlink:href="#8" y="6.513"/><use xlink:href="#9" y="8.684"/><use xlink:href="#21" y="10.855"/></svg><svg x="4066"><use xlink:href="#a"/><use xlink:href="#b" x="-.004" y="13.001"/><use xlink:href="#7" y="2.171"/><use xlink:href="#8" y="6.513"/><use xlink:href="#9" y="8.684"/><use xlink:href="#7" y="10.855"/></svg><svg x="4173"><use xlink:href="#a"/><use xlink:href="#b" x="-.004" y="32.54"/><use xlink:href="#7" y="2.171"/><use xlink:href="#8" y="6.513"/><use xlink:href="#9" y="8.684"/><use xlink:href="#7" y="10.855"/><use xlink:href="#22" y="13.026"/><use xlink:href="#23" y="15.197"/><use xlink:href="#24" y="17.368"/><use xlink:href="#25" y="19.539"/><use xlink:href="#26" y="21.71"/><use xlink:href="#27" y="23.881"/><use xlink:href="#28" y="26.052"/><use xlink:href="#29" y="28.223"/><use xlink:href="#30" y="30.394"/></svg><svg x="4280"><use xlink:href="#a"/><use xlink:href="#b" x="-.004" y="34.711"/><use xlink:href="#7" y="2.171"/><use xlink:href="#8" y="6.513"/><use xlink:href="#9" y="8.684"/><use xlink:href="#7" y="10.855"/><use xlink:href="#22" y="13.026"/><use xlink:href="#23" y="15.197"/><use xlink:href="#24" y="17.368"/><use xlink:href="#25" y="19.539"/><use xlink:href="#26" y="21.71"/><use xlink:href="#27" y="23.881"/><use xlink:href="#28" y="26.052"/><use xlink:href="#29" y="28.223"/><use xlink:href="#30" y="30.394"/></svg><svg x="4387"><use xlink:href="#a"/><use xlink:href="#b" x="3.996" y="34.711"/><use xlink:href="#7" y="2.171"/><use xlink:href="#8" y="6.513"/><use xlink:href="#9" y="8.684"/><use xlink:href="#7" y="10.855"/><use xlink:href="#22" y="13.026"/><use xlink:href="#23" y="15.197"/><use xlink:href="#24" y="17.368"/><use xlink:href="#25" y="19.539"/><use xlink:href="#26" y="21.71"/><use xlink:href="#27" y="23.881"/><use xlink:href="#28" y="26.052"/><use xlink:href="#29" y="28.223"/><use xlink:href="#30" y="30.394"/><text y="36.406" class="f">----</text></svg><svg x="4494"><use xlink:href="#a"/><use xlink:href="#b" x="10.996" y="34.711"/><use xlink:href="#7" y="2.171"/><use xlink:href="#8" y="6.513"/><use xlink:href="#9" y="8.684"/><use xlink:href="#7" y="10.855"/><use xlink:href="#22" y="13.026"/><use xlink:href="#23" y="15.197"/><use xlink:href="#24" y="17.368"/><use xlink:href="#25" y="19.539"/><use xlink:href="#26" y="21.71"/><use xlink:href="#27" y="23.881"/><use xlink:href="#28" y="26.052"/><use xlink:href="#29" y="28.223"/><use xlink:href="#30" y="30.394"/><use xlink:href="#10" y="34.736"/></svg><svg x="4601"><use xlink:href="#a"/><use xlink:href="#b" x="17.996" y="34.711"/><use xlink:href="#7" y="2.171"/><use xlink:href="#8" y="6.513"/><use xlink:href="#9" y="8.684"/><use xlink:href="#7" y="10.855"/><use xlink:href="#22" y="13.026"/><use xlink:href="#23" y="15.197"/><use xlink:href="#24" y="17.368"/><use xlink:href="#25" y="19.539"/><use xlink:href="#26" y="21.71"/><use xlink:href="#27" y="23.881"/><use xlink:href="#28" y="26.052"/><use xlink:href="#29" y="28.223"/><use xlink:href="#30" y="30.394"/><text y="36.406" class="f">------------------</text></svg><svg x="4708"><use xlink:href="#a"/><use xlink:href="#b" x="25.996" y="34.711"/><use xlink:href="#7" y="2.171"/><use xlink:href="#8" y="6.513"/><use xlink:href="#9" y="8.684"/><use xlink:href="#7" y="10.855"/><use xlink:href="#22" y="13.026"/><use xlink:href="#23" y="15.197"/><use xlink:href="#24" y="17.368"/><use xlink:href="#25" y="19.539"/><use xlink:href="#26" y="21.71"/><use xlink:href="#27" y="23.881"/><use xlink:href="#28" y="26.052"/><use xlink:href="#29" y="28.223"/><use xlink:href="#30" y="30.394"/><use xlink:href="#12" y="34.736"/></svg><svg x="4815"><use xlink:href="#a"/><use xlink:href="#b" x="29.996" y="34.711"/><use xlink:href="#7" y="2.171"/><use xlink:href="#8" y="6.513"/><use xlink:href="#9" y="8.684"/><use xlink:href="#7" y="10.855"/><use xlink:href="#22" y="13.026"/><use xlink:href="#23" y="15.197"/><use xlink:href="#24" y="17.368"/><use xlink:href="#25" y="19.539"/><use xlink:href="#26" y="21.71"/><use xlink:href="#27" y="23.881"/><use xlink:href="#28" y="26.052"/><use xlink:href="#29" y="28.223"/><use xlink:href="#30" y="30.394"/><use xlink:href="#2" y="34.736"/></svg><svg x="4922"><use xlink:href="#a"/><use xlink:href="#b" x="31.996" y="34.711"/><use xlink:href="#7" y="2.171"/><use xlink:href="#8" y="6.513"/><use xlink:href="#9" y="8.684"/><use xlink:href="#7" y="10.855"/><use xlink:href="#22" y="13.026"/><use xlink:href="#23" y="15.197"/><use xlink:href="#24" y="17.368"/><use xlink:href="#25" y="19.539"/><use xlink:href="#26" y="21.71"/><use xlink:href="#27" y="23.881"/><use xlink:href="#28" y="26.052"/><use xlink:href="#29" y="28.223"/><use xlink:href="#30" y="30.394"/><use xlink:href="#15" y="34.736"/></svg><svg x="5029"><use xlink:href="#a"/><use xlink:href="#b" x="33.996" y="34.711"/><use xlink:href="#7" y="2.171"/><use xlink:href="#8" y="6.513"/><use xlink:href="#9" y="8.684"/><use xlink:href="#7" y="10.855"/><use xlink:href="#22" y="13.026"/><use xlink:href="#23" y="15.197"/><use xlink:href="#24" y="17.368"/><use xlink:href="#25" y="19.539"/><use xlink:href="#26" y="21.71"/><use xlink:href="#27" y="23.881"/><use xlink:href="#28" y="26.052"/><use xlink:href="#29" y="28.223"/><use xlink:href="#30" y="30.394"/><text y="36.406" class="f">----------------------------------</text></svg><svg x="5136"><use xlink:href="#a"/><use xlink:href="#b" x="35.996" y="34.711"/><use xlink:href="#7" y="2.171"/><use xlink:href="#8" y="6.513"/><use xlink:href="#9" y="8.684"/><use xlink:href="#7" y="10.855"/><use xlink:href="#22" y="13.026"/><use xlink:href="#23" y="15.197"/><use xlink:href="#24" y="17.368"/><use xlink:href="#25" y="19.539"/><use xlink:href="#26" y="21.71"/><use xlink:href="#27" y="23.881"/><use xlink:href="#28" y="26.052"/><use xlink:href="#29" y="28.223"/><use xlink:href="#30" y="30.394"/><use xlink:href="#18" y="34.736"/></svg><svg x="5243"><use xlink:href="#a"/><use xlink:href="#b" x="36.996" y="34.711"/><use xlink:href="#7" y="2.171"/><use xlink:href="#8" y="6.513"/><use xlink:href="#9" y="8.684"/><use xlink:href="#7" y="10.855"/><use xlink:href="#22" y="13.026"/><use xlink:href="#23" y="15.197"/><use xlink:href="#24" y="17.368"/><use xlink:href="#25" y="19.539"/><use xlink:href="#26" y="21.71"/><use xlink:href="#27" y="23.881"/><use xlink:href="#28" y="26.052"/><use xlink:href="#29" y="28.223"/><use xlink:href="#30" y="30.394"/><use xlink:href="#19" y="34.736"/></svg><svg x="5350"><use xlink:href="#a"/><use xlink:href="#b" x="38.996" y="34.711"/><use xlink:href="#7" y="2.171"/><use xlink:href="#8" y="6.513"/><use xlink:href="#9" y="8.684"/><use xlink:href="#7" y="10.855"/><use xlink:href="#22" y="13.026"/><use xlink:href="#23" y="15.197"/><use xlink:href="#24" y="17.368"/><use xlink:href="#25" y="19.539"/><use xlink:href="#26" y="21.71"/><use xlink:href="#27" y="23.881"/><use xlink:href="#28" y="26.052"/><use xlink:href="#29" y="28.223"/><use xlink:href="#30" y="30.394"/><use xlink:href="#3" y="34.736"/></svg><svg x="5457"><use xlink:href="#a"/><use xlink:href="#b" x="39.996" y="34.711"/><use xlink:href="#7" y="2.171"/><use xlink:href="#8" y="6.513"/><use xlink:href="#9" y="8.684"/><use xlink:href="#7" y="10.855"/><use xlink:href="#22" y="13.026"/><use xlink:href="#23" y="15.197"/><use xlink:href="#24" y="17.368"/><use xlink:href="#25" y="19.539"/><use xlink:href="#26" y="21.71"/><use xlink:href="#27" y="23.881"/><use xlink:href="#28" y="26.052"/><use xlink:href="#29" y="28.223"/><use xlink:href="#30" y="30.394"/><use xlink:href="#20" y="34.736"/></svg><svg x="5564"><use xlink:href="#a"/><use xlink:href="#b" x="41.996" y="34.711"/><use xlink:href="#7" y="2.171"/><use xlink:href="#8" y="6.513"/><use xlink:href="#9" y="8.684"/><use xlink:href="#7" y="10.855"/><use xlink:href="#22" y="13.026"/><use xlink:href="#23" y="15.197"/><use xlink:href="#24" y="17.368"/><use xlink:href="#25" y="19.539"/><use xlink:href="#26" y="21.71"/><use xlink:href="#27" y="23.881"/><use xlink:href="#28" y="26.052"/><use xlink:href="#29" y="28.223"/><use xlink:href="#30" y="30.394"/><use xlink:href="#21" y="34.736"/></svg><svg x="5671"><use xlink:href="#a"/><use xlink:href="#b" x="43.996" y="34.711"/><use xlink:href="#7" y="2.171"/><use xlink:href="#8" y="6.513"/><use xlink:href="#9" y="8.684"/><use xlink:href="#7" y="10.855"/><use xlink:href="#22" y="13.026"/><use xlink:href="#23" y="15.197"/><use xlink:href="#24" y="17.368"/><use xlink:href="#25" y="19.539"/><use xlink:href="#26" y="21.71"/><use xlink:href="#27" y="23.881"/><use xlink:href="#28" y="26.052"/><use xlink:href="#29" y="28.223"/><use xlink:href="#30" y="30.394"/><text y="36.406" class="f">--------------------------------------------</text></svg><svg x="5778"><use xlink:href="#a"/><use xlink:href="#b" x="44.996" y="34.711"/><use xlink:href="#7" y="2.171"/><use xlink:href="#8" y="6.513"/><use xlink:href="#9" y="8.684"/><use xlink:href="#7" y="10.855"/><use xlink:href="#22" y="13.026"/><use xlink:href="#23" y="15.197"/><use xlink:href="#24" y="17.368"/><use xlink:href="#25" y="19.539"/><use xlink:href="#26" y="21.71"/><use xlink:href="#27" y="23.881"/><use xlink:href="#28" y="26.052"/><use xlink:href="#29" y="28.223"/><use xlink:href="#30" y="30.394"/><text y="36.406" class="f">---------------------------------------------</text></svg><svg x="5885"><use xlink:href="#a"/><use xlink:href="#b" x="47.996" y="34.711"/><use xlink:href="#7" y="2.171"/><use xlink:href="#8" y="6.513"/><use xlink:href="#9" y="8.684"/><use xlink:href="#7" y="10.855"/><use xlink:href="#22" y="13.026"/><use xlink:href="#23" y="15.197"/><use xlink:href="#24" y="17.368"/><use xlink:href="#25" y="19.539"/><use xlink:href="#26" y="21.71"/><use xlink:href="#27" y="23.881"/><use xlink:href="#28" y="26.052"/><use xlink:href="#29" y="28.223"/><use xlink:href="#30" y="30.394"/><text y="36.406" class="f">------------------------------------------------</text></svg><svg x="5992"><use xlink:href="#a"/><use xlink:href="#b" x="67.996" y="34.711"/><use xlink:href="#7" y="2.171"/><use xlink:href="#8" y="6.513"/><use xlink:href="#9" y="8.684"/><use xlink:href="#7" y="10.855"/><use xlink:href="#22" y="13.026"/><use xlink:href="#23" y="15.197"/><use xlink:href="#24" y="17.368"/><use xlink:href="#25" y="19.539"/><use xlink:href="#26" y="21.71"/><use xlink:href="#27" y="23.881"/><use xlink:href="#28" y="26.052"/><use xlink:href="#29" y="28.223"/><use xlink:href="#30" y="30.394"/><text y="36.406" class="f">--------------------------------------------------------------------</text></svg><svg x="6099"><use xlink:href="#a"/><use xlink:href="#b" x="72.996" y="34.711"/><use xlink:href="#7" y="2.171"/><use xlink:href="#8" y="6.513"/><use xlink:href="#9" y="8.684"/><use xlink:href="#7" y="10.855"/><use xlink:href="#22" y="13.026"/><use xlink:href="#23" y="15.197"/><use xlink:href="#24" y="17.368"/><use xlink:href="#25" y="19.539"/><use xlink:href="#26" y="21.71"/><use xlink:href="#27" y="23.881"/><use xlink:href="#28" y="26.052"/><use xlink:href="#29" y="28.223"/><use xlink:href="#30" y="30.394"/><use xlink:href="#4" y="34.736"/></svg><svg x="6206"><use xlink:href="#a"/><use xlink:href="#b" x="77.996" y="34.711"/><use xlink:href="#7" y="2.171"/><use xlink:href="#8" y="6.513"/><use xlink:href="#9" y="8.684"/><use xlink:href="#7" y="10.855"/><use xlink:href="#22" y="13.026"/><use xlink:href="#23" y="15.197"/><use xlink:href="#24" y="17.368"/><use xlink:href="#25" y="19.539"/><use xlink:href="#26" y="21.71"/><use xlink:href="#27" y="23.881"/><use xlink:href="#28" y="26.052"/><use xlink:href="#29" y="28.223"/><use xlink:href="#30" y="30.394"/><use xlink:href="#6" y="34.736"/></svg><svg x="6313"><use xlink:href="#a"/><use xlink:href="#b" x="-.004" y="36.882"/><use xlink:href="#7" y="2.171"/><use xlink:href="#8" y="6.513"/><use xlink:href="#9" y="8.684"/><use xlink:href="#7" y="10.855"/><use xlink:href="#22" y="13.026"/><use xlink:href="#23" y="15.197"/><use xlink:href="#24" y="17.368"/><use xlink:href="#25" y="19.539"/><use xlink:href="#26" y="21.71"/><use xlink:href="#27" y="23.881"/><use xlink:href="#28" y="26.052"/><use xlink:href="#29" y="28.223"/><use xlink:href="#30" y="30.394"/><use xlink:href="#7" y="34.736"/></svg><svg x="6420"><use xlink:href="#a"/><use xlink:href="#b" x="-.004" y="43.395"/><use xlink:href="#7" y="2.171"/><use xlink:href="#8" y="6.513"/><use xlink:href="#9" y="8.684"/><use xlink:href="#7" y="10.855"/><use xlink:href="#22" y="13.026"/><use xlink:href="#23" y="15.197"/><use xlink:href="#24" y="17.368"/><use xlink:href="#25" y="19.539"/><use xlink:href="#26" y="21.71"/><use xlink:href="#27" y="23.881"/><use xlink:href="#28" y="26.052"/><use xlink:href="#29" y="28.223"/><use xlink:href="#30" y="30.394"/><use xlink:href="#7" y="34.736"/><use xlink:href="#31" y="39.078"/><use xlink:href="#32" y="41.249"/></svg><svg x="6527"><use xlink:href="#a"/><use xlink:href="#b" x="2.996" y="43.395"/><use xlink:href="#7" y="2.171"/><use xlink:href="#8" y="6.513"/><use xlink:href="#9" y="8.684"/><use xlink:href="#7" y="10.855"/><use xlink:href="#22" y="13.026"/><use xlink:href="#23" y="15.197"/><use xlink:href="#24" y="17.368"/><use xlink:href="#25" y="19.539"/><use xlink:href="#26" y="21.71"/><use xlink:href="#27" y="23.881"/><use xlink:href="#28" y="26.052"/><use xlink:href="#29" y="28.223"/><use xlink:href="#30" y="30.394"/><use xlink:href="#7" y="34.736"/><use xlink:href="#31" y="39.078"/><use xlink:href="#32" y="41.249"/><text y="45.09" class="f">---</text></svg><svg x="6634"><use xlink:href="#a"/><use xlink:href="#b" x="14.996" y="43.395"/><use xlink:href="#7" y="2.171"/><use xlink:href="#8" y="6.513"/><use xlink:href="#9" y="8.684"/><use xlink:href="#7" y="10.855"/><use xlink:href="#22" y="13.026"/><use xlink:href="#23" y="15.197"/><use xlink:href="#24" y="17.368"/><use xlink:href="#25" y="19.539"/><use xlink:href="#26" y="21.71"/><use xlink:href="#27" y="23.881"/><use xlink:href="#28" y="26.052"/><use xlink:href="#29" y="28.223"/><use xlink:href="#30" y="30.394"/><use xlink:href="#7" y="34.736"/><use xlink:href="#31" y="39.078"/><use xlink:href="#32" y="41.249"/><use xlink:href="#11" y="43.42"/></svg><svg x="6741"><use xlink:href="#a"/><use xlink:href="#b" x="26.996" y="43.395"/><use xlink:href="#7" y="2.171"/><use xlink:href="#8" y="6.513"/><use xlink:href="#9" y="8.684"/><use xlink:href="#7" y="10.855"/><use xlink:href="#22" y="13.026"/><use xlink:href="#23" y="15.197"/><use xlink:href="#24" y="17.368"/><use xlink:href="#25" y="19.539"/><use xlink:href="#26" y="21.71"/><use xlink:href="#27" y="23.881"/><use xlink:href="#28" y="26.052"/><use xlink:href="#29" y="28.223"/><use xlink:href="#30" y="30.394"/><use xlink:href="#7" y="34.736"/><use xlink:href="#31" y="39.078"/><use xlink:href="#32" y="41.249"/><use xlink:href="#13" y="43.42"/></svg><svg x="6848"><use xlink:href="#a"/><use xlink:href="#b" x="28.996" y="43.395"/><use xlink:href="#7" y="2.171"/><use xlink:href="#8" y="6.513"/><use xlink:href="#9" y="8.684"/><use xlink:href="#7" y="10.855"/><use xlink:href="#22" y="13.026"/><use xlink:href="#23" y="15.197"/><use xlink:href="#24" y="17.368"/><use xlink:href="#25" y="19.539"/><use xlink:href="#26" y="21.71"/><use xlink:href="#27" y="23.881"/><use xlink:href="#28" y="26.052"/><use xlink:href="#29" y="28.223"/><use xlink:href="#30" y="30.394"/><use xlink:href="#7" y="34.736"/><use xlink:href="#31" y="39.078"/><use xlink:href="#32" y="41.249"/><use xlink:href="#14" y="43.42"/></svg><svg x="6955"><use xlink:href="#a"/><use xlink:href="#b" x="30.996" y="43.395"/><use xlink:href="#7" y="2.171"/><use xlink:href="#8" y="6.513"/><use xlink:href="#9" y="8.684"/><use xlink:href="#7" y="10.855"/><use xlink:href="#22" y="13.026"/><use xlink:href="#23" y="15.197"/><use xlink:href="#24" y="17.368"/><use xlink:href="#25" y="19.539"/><use xlink:href="#26" y="21.71"/><use xlink:href="#27" y="23.881"/><use xlink:href="#28" y="26.052"/><use xlink:href="#29" y="28.223"/><use xlink:href="#30" y="30.394"/><use xlink:href="#7" y="34.736"/><use xlink:href="#31" y="39.078"/><use xlink:href="#32" y="41.249"/><text y="45.09" class="f">-------------------------------</text></svg><svg x="7062"><use xlink:href="#a"/><use xlink:href="#b" x="31.996" y="43.395"/><use xlink:href="#7" y="2.171"/><use xlink:href="#8" y="6.513"/><use xlink:href="#9" y="8.684"/><use xlink:href="#7" y="10.855"/><use xlink:href="#22" y="13.026"/><use xlink:href="#23" y="15.197"/><use xlink:href="#24" y="17.368"/><use xlink:href="#25" y="19.539"/><use xlink:href="#26" y="21.71"/><use xlink:href="#27" y="23.881"/><use xlink:href="#28" y="26.052"/><use xlink:href="#29" y="28.223"/><use xlink:href="#30" y="30.394"/><use xlink:href="#7" y="34.736"/><use xlink:href="#31" y="39.078"/><use xlink:href="#32" y="41.249"/><use xlink:href="#15" y="43.42"/></svg><svg x="7169"><use xlink:href="#a"/><use xlink:href="#b" x="32.996" y="43.395"/><use xlink:href="#7" y="2.171"/><use xlink:href="#8" y="6.513"/><use xlink:href="#9" y="8.684"/><use xlink:href="#7" y="10.855"/><use xlink:href="#22" y="13.026"/><use xlink:href="#23" y="15.197"/><use xlink:href="#24" y="17.368"/><use xlink:href="#25" y="19.539"/><use xlink:href="#26" y="21.71"/><use xlink:href="#27" y="23.881"/><use xlink:href="#28" y="26.052"/><use xlink:href="#29" y="28.223"/><use xlink:href="#30" y="30.394"/><use xlink:href="#7" y="34.736"/><use xlink:href="#31" y="39.078"/><use xlink:href="#32" y="41.249"/><use xlink:href="#16" y="43.42"/></svg><svg x="7276"><use xlink:href="#a"/><use xlink:href="#b" x="34.996" y="43.395"/><use xlink:href="#7" y="2.171"/><use xlink:href="#8" y="6.513"/><use xlink:href="#9" y="8.684"/><use xlink:href="#7" y="10.855"/><use xlink:href="#22" y="13.026"/><use xlink:href="#23" y="15.197"/><use xlink:href="#24" y="17.368"/><use xlink:href="#25" y="19.539"/><use xlink:href="#26" y="21.71"/><use xlink:href="#27" y="23.881"/><use xlink:href="#28" y="26.052"/><use xlink:href="#29" y="28.223"/><use xlink:href="#30" y="30.394"/><use xlink:href="#7" y="34.736"/><use xlink:href="#31" y="39.078"/><use xlink:href="#32" y="41.249"/><use xlink:href="#17" y="43.42"/></svg><svg x="7383"><use xlink:href="#a"/><use xlink:href="#b" x="72.996" y="43.395"/><use xlink:href="#7" y="2.171"/><use xlink:href="#8" y="6.513"/><use xlink:href="#9" y="8.684"/><use xlink:href="#7" y="10.855"/><use xlink:href="#22" y="13.026"/><use xlink:href="#23" y="15.197"/><use xlink:href="#24" y="17.368"/><use xlink:href="#25" y="19.539"/><use xlink:href="#26" y="21.71"/><use xlink:href="#27" y="23.881"/><use xlink:href="#28" y="26.052"/><use xlink:href="#29" y="28.223"/><use xlink:href="#30" y="30.394"/><use xlink:href="#7" y="34.736"/><use xlink:href="#31" y="39.078"/><use xlink:href="#32" y="41.249"/><use xlink:href="#4" y="43.42"/></svg><svg x="7490"><use xlink:href="#a"/><use xlink:href="#b" x="75.996" y="43.395"/><use xlink:href="#7" y="2.171"/><use xlink:href="#8" y="6.513"/><use xlink:href="#9" y="8.684"/><use xlink:href="#7" y="10.855"/><use xlink:href="#22" y="13.026"/><use xlink:href="#23" y="15.197"/><use xlink:href="#24" y="17.368"/><use xlink:href="#25" y="19.539"/><use xlink:href="#26" y="21.71"/><use xlink:href="#27" y="23.881"/><use xlink:href="#28" y="26.052"/><use xlink:href="#29" y="28.223"/><use xlink:href="#30" y="30.394"/><use xlink:href="#7" y="34.736"/><use xlink:href="#31" y="39.078"/><use xlink:href="#32" y="41.249"/><use xlink:href="#5" y="43.42"/></svg><svg x="7597"><use xlink:href="#a"/><use xlink:href="#b" x="-.004" y="45.566"/><use xlink:href="#7" y="2.171"/><use xlink:href="#8" y="6.513"/><use xlink:href="#9" y="8.684"/><use xlink:href="#7" y="10.855"/><use xlink:href="#22" y="13.026"/><use xlink:href="#23" y="15.197"/><use xlink:href="#24" y="17.368"/><use xlink:href="#25" y="19.539"/><use xlink:href="#26" y="21.71"/><use xlink:href="#27" y="23.881"/><use xlink:href="#28" y="26.052"/><use xlink:href="#29" y="28.223"/><use xlink:href="#30" y="30.394"/><use xlink:href="#7" y="34.736"/><use xlink:href="#31" y="39.078"/><use xlink:href="#32" y="41.249"/><use xlink:href="#7" y="43.42"/></svg><svg x="7704"><use xlink:href="#a"/><use xlink:href="#b" x="-.004" y="47.737"/><use xlink:href="#7" y="2.171"/><use xlink:href="#8" y="6.513"/><use xlink:href="#9" y="8.684"/><use xlink:href="#7" y="10.855"/><use xlink:href="#22" y="13.026"/><use xlink:href="#23" y="15.197"/><use xlink:href="#24" y="17.368"/><use xlink:href="#25" y="19.539"/><use xlink:href="#26" y="21.71"/><use xlink:href="#27" y="23.881"/><use xlink:href="#28" y="26.052"/><use xlink:href="#29" y="28.223"/><use xlink:href="#30" y="30.394"/><use xlink:href="#7" y="34.736"/><use xlink:href="#31" y="39.078"/><use xlink:href="#32" y="41.249"/><use xlink:href="#7" y="43.42"/><use xlink:href="#33" y="45.591"/></svg><svg x="7811"><use xlink:href="#a"/><use xlink:href="#b" x="-.004" y="49.908"/><use xlink:href="#7" y="2.171"/><use xlink:href="#8" y="6.513"/><use xlink:href="#9" y="8.684"/><use xlink:href="#7" y="10.855"/><use xlink:href="#22" y="13.026"/><use xlink:href="#23" y="15.197"/><use xlink:href="#24" y="17.368"/><use xlink:href="#25" y="19.539"/><use xlink:href="#26" y="21.71"/><use xlink:href="#27" y="23.881"/><use xlink:href="#28" y="26.052"/><use xlink:href="#29" y="28.223"/><use xlink:href="#30" y="30.394"/><use xlink:href="#7" y="34.736"/><use xlink:href="#31" y="39.078"/><use xlink:href="#32" y="41.249"/><use xlink:href="#7" y="43.42"/><use xlink:href="#33" y="45.591"/><use xlink:href="#34" y="47.762"/></svg><svg x="7918"><use xlink:href="#a"/><use xlink:href="#b" x="-.004" y="52.079"/><use xlink:href="#7" y="2.171"/><use xlink:href="#8" y="6.513"/><use xlink:href="#9" y="8.684"/><use xlink:href="#7" y="10.855"/><use xlink:href="#22" y="13.026"/><use xlink:href="#23" y="15.197"/><use xlink:href="#24" y="17.368"/><use xlink:href="#25" y="19.539"/><use xlink:href="#26" y="21.71"/><use xlink:href="#27" y="23.881"/><use xlink:href="#28" y="26.052"/><use xlink:href="#29" y="28.223"/><use xlink:href="#30" y="30.394"/><use xlink:href="#7" y="34.736"/><use xlink:href="#31" y="39.078"/><use xlink:href="#32" y="41.249"/><use xlink:href="#7" y="43.42"/><use xlink:href="#33" y="45.591"/><use xlink:href="#34" y="47.762"/><use xlink:href="#35" y="49.933"/></svg><svg x="8025"><use xlink:href="#a"/><use xlink:href="#b" x="-.004" y="58.592"/><use xlink:href="#7" y="2.171"/><use xlink:href="#8" y="6.513"/><use xlink:href="#9" y="8.684"/><use xlink:href="#7" y="10.855"/><use xlink:href="#22" y="13.026"/><use xlink:href="#23" y="15.197"/><use xlink:href="#24" y="17.368"/><use xlink:href="#25" y="19.539"/><use xlink:href="#26" y="21.71"/><use xlink:href="#27" y="23.881"/><use xlink:href="#28" y="26.052"/><use xlink:href="#29" y="28.223"/><use xlink:href="#30" y="30.394"/><use xlink:href="#7" y="34.736"/><use xlink:href="#31" y="39.078"/><use xlink:href="#32" y="41.249"/><use xlink:href="#7" y="43.42"/><use xlink:href="#33" y="45.591"/><use xlink:href="#34" y="47.762"/><use xlink:href="#35" y="49.933"/><use xlink:href="#36" y="52.104"/><use xlink:href="#37" y="54.275"/></svg><svg x="8132"><use xlink:href="#a"/><use xlink:href="#b" x="-.004" y="60.763"/><use xlink:href="#7" y="2.171"/><use xlink:href="#8" y="6.513"/><use xlink:href="#9" y="8.684"/><use xlink:href="#7" y="10.855"/><use xlink:href="#22" y="13.026"/><use xlink:href="#23" y="15.197"/><use xlink:href="#24" y="17.368"/><use xlink:href="#25" y="19.539"/><use xlink:href="#26" y="21.71"/><use xlink:href="#27" y="23.881"/><use xlink:href="#28" y="26.052"/><use xlink:href="#29" y="28.223"/><use xlink:href="#30" y="30.394"/><use xlink:href="#7" y="34.736"/><use xlink:href="#31" y="39.078"/><use xlink:href="#32" y="41.249"/><use xlink:href="#7" y="43.42"/><use xlink:href="#33" y="45.591"/><use xlink:href="#34" y="47.762"/><use xlink:href="#35" y="49.933"/><use xlink:href="#36" y="52.104"/><use xlink:href="#37" y="54.275"/><text x="1.002" y="60.287" class="h">Is</text><text x="4.008" y="60.287" class="h">that</text><text x="9.018" y="60.287" class="h">okay?</text><text x="15.03" y="60.287" class="g">(y/n)</text><text x="21.042" y="60.287" class="g">[y]</text></svg></svg></g></g></svg></svg>